<?xml version="1.0" encoding="UTF-8"?>
<svg id="Layer_2" data-name="Layer 2" xmlns="http://www.w3.org/2000/svg" viewBox="0 0 1258.7 234.99">
  <defs>
    <style>
      .cls-1 {
        fill: #0b81ff;
      }

      .cls-1, .cls-2 {
        stroke-width: 0px;
      }

      .cls-2 {
        fill: #fff;
      }
    </style>
  </defs>
  <g>
    <path class="cls-1" d="m.05,62.02c10.6,3.25,28.68,6.58,39.43,8.04,18.23,2.48,35.79-.9,53.12-5.67,19.01-5.23,32.34-14.42,42.56-31.42,6.53-7.49,11.49-19.43,13.62-24.91,23.81,15.07,53.51,30.77,77.26,45.71,3.13,1.97-2.26,11.03-4.1,14.44-7.29,14.58-9.62,15.55-18.85,25.78-5.38,5.96-19.67,16.38-29.22,20.36-12.85,7.2-28.17,12.92-44.19,16.99-13.42,2.19-26.86,3.02-40.43,3.16-5.5.06-10.12-1.02-14.23-4.7-7.79-6.97-15.7-13.81-23.41-20.88-13.97-12.8-27.14-23.62-41-36.55-1.35-1.26-11.41-7.57-10.58-10.37Z"/>
    <path class="cls-1" d="m89.6,181.29c-8.8.12-9.45-3.7-14.17-7.55-7.15-5.81-13.75-10.53-20.38-16.97-9.17-8.9-20.35-17.18-30.12-25.29-5.55-4.6-22.93-19.6-22.93-19.6l11.52-2.04,23.21-5.24s5.9,6.09,7.7,7.93c8.75,8.95,18.59,16.69,27.44,25.51,3.56,3.55,11.44,4.35,16.27,4.6,25.25,1.32,49.93-1.72,73.67-10.95,14.2-5.52,28.16-11.76,38.87-23.31,3.38-3.64,14.35-15.18,14.35-15.18l5.23,5.24s17.08,12.23,28.01,19.11c3.91,2.46,6.43,3.73,6.43,3.73,0,0-10.41,11.14-13.69,13.5-18.96,13.6-40.1,22.11-62.13,28.85-13.78,4.22-27.54,8.41-41.64,11.19-10.92,2.15-16.35,3.91-27.5,4.62-3.84.24-15.27,1.5-20.12,1.85Z"/>
    <path class="cls-1" d="m224.51,153.71c7.62,5.06,15.23,10.13,22.85,15.18,2.98,1.97,1.95,3.19-.67,4.33-6.44,2.81-12.76,5.91-19.29,8.48-31.53,12.43-63.14,24.66-94.67,37.08-13.07,5.15-32.03,14.41-44.3,16.17-4.37.63-9.3-6.88-14.47-10.14-10.24-9.98-16.09-12.37-26.99-21.38-13.77-11.39-28.81-21.2-41.88-33.48-2.56-2.41-3.74-4.05.78-5.54,11.48-3.81,22.9-7.84,34.32-11.83,1.22-.43,2.07-.66,3.24.41,6.58,6.01,13.27,11.88,19.93,17.8,6.52,5.79,13.04,11.59,19.58,17.37,2.65,2.35,6.06,1.59,8.76,1,16.7-3.63,33.83-4.98,50.35-9.52,19.63-5.39,39.89-8.49,58.89-16.19,7.5-3.04,14.34-7.52,22.18-9.79.45.02.9.03,1.35.05Z"/>
  </g>
  <path class="cls-2" d="m454.76,94.24c11.83-16.87,26.38-25.3,45.75-25.01,24.8.37,44.56,20.86,47.28,45.51.51,4.64.76,9.3.76,13.97,0,27.63-.08,55.26.09,82.88.03,4.22-.58,6.04-5.5,5.86-11.46-.43-22.96-.29-34.43-.05-3.74.08-4.84-.84-4.82-4.73.19-25.49.08-50.98.11-76.46,0-6.13-.49-12.2-2.52-18.06-5.48-15.81-24.84-19.61-37.06-8.17-7.04,6.59-9.67,15.06-9.66,24.59.03,25.68-.09,51.37.11,77.05.03,4.4-.84,5.98-5.62,5.82-11.66-.39-23.35-.24-35.02-.06-3.24.05-4.29-.77-4.29-4.16.1-68.49.11-136.97-.02-205.46,0-3.9,1.44-4.4,4.76-4.35,11.65.17,23.31.24,34.95-.03,2.9-.07,5.25,2.23,5.23,5.13-.19,26.07-.1,52.14-.1,78.21,0,1.93,0,3.86,0,7.49Z"/>
  <path class="cls-2" d="m675.59,194.96c-8.29,11.76-17.33,20.1-30.09,23.83-31.83,9.32-58.73-7.9-63.5-40.56-1.61-11.06-1.07-22.12-1.13-33.18-.12-22.17.07-44.35-.13-66.52-.04-5.03.99-6.58,8.36-5.65,9.44,1.19,19.03,1.04,28.49-.03,6.89-.78,7.93.45,7.9,5.33-.2,26.06-.09,52.13-.11,78.19,0,3.51.23,6.96.97,10.42,2.55,12.02,8.42,17.96,19.36,19.31,11.81,1.47,21.41-3.54,26.4-13.82,2.59-5.35,3.49-11.05,3.49-16.96-.03-25.67.13-51.35-.14-77.02-.05-4.75,1.39-5.75,5.81-5.63,11.47.31,22.95.26,34.42.01,3.66-.08,4.53,1.03,4.52,4.57-.11,45.32-.11,90.64,0,135.96,0,2.35-1.91,4.23-4.26,4.2-12.22-.19-24.44-.2-36.66,0-3.24.05-3.87-1.08-3.77-3.98.2-5.63.06-11.27.06-18.47Z"/>
  <path class="cls-2" d="m851.87,37.86c-7.05-2.43-13.52-3.81-20.2-3.07-8.47.93-15.43,6.74-16.99,15.12-1.24,6.65-.54,13.39-.78,20.08-.11,3.09,1.84,2.78,3.8,2.78,8.36-.01,16.72.13,25.08-.07,2.44-.06,4.37,1.85,4.3,4.29-.22,8.34-.21,16.68,0,25.02.08,3.2-1.13,3.95-4.05,3.89-7.58-.15-15.18.27-22.74-.16-5.03-.29-6.54.99-6.49,6.3.28,33.05,0,66.1.28,99.15.04,5.39-1.39,6.56-6.94,6.26-10.95-.6-21.92-.48-32.88-.02-4.19.17-5.18-.94-5.16-4.84.15-33.63-.03-67.27.22-100.9.04-4.98-1.31-6.36-6.1-5.93-4.72.43-9.52-.02-14.28.13-2.2.07-3.96-1.5-3.93-3.71.13-8.55.17-17.11-.01-25.66-.07-3.22,1.23-3.91,4.13-3.81,5.24.19,10.52-.22,15.74.15,3.81.27,4.48-1.17,4.4-4.6-.22-8.93-.7-17.93,1.37-26.71,5.29-22.53,20.22-35.38,42.74-40.03,11.08-2.29,22.45-1.75,33.61.09,3.47.57,5.18,1.78,5.02,5.88-.37,9.89-.12,19.8-.12,30.38Z"/>
  <path class="cls-2" d="m962.77,37.86c-6.81-2.45-13.05-3.71-19.53-3.16-10.81.91-17.32,7.53-17.91,18.51-.28,5.24.09,10.5-.17,15.74-.11,2.23,1.48,3.95,3.71,3.89,8.04-.21,16.08.1,24.12-.15,3.63-.11,5.19.64,5.02,4.72-.33,8.16-.22,16.34-.03,24.5.05,2.29-1.77,4.04-4.06,3.99-7.54-.16-15.12.38-22.62-.2-5.48-.42-6.2,1.64-6.17,6.47.21,33.06,0,66.12.23,99.17.03,4.73-.91,6.31-5.93,6.12-11.07-.42-22.17-.34-33.25-.03-4.42.12-5.85-.88-5.82-5.62.23-33.25-.01-66.51.26-99.76.04-5.27-1.39-6.8-6.47-6.3-4.62.45-9.34-.1-13.99.16-3.23.18-3.93-1.08-3.86-4.05.18-8.36.23-16.73-.02-25.08-.11-3.54,1.29-4.21,4.41-4.08,5.24.22,10.51-.15,15.74.13,3.47.19,4.13-1.14,4.13-4.32-.01-8.92-.88-17.92,1.09-26.74,5.4-24.06,23.69-39.08,50.56-41.34,8.92-.75,17.86-.48,26.69,1.44,2.43.53,4.07,1.08,3.98,4.34-.27,10.29-.1,20.59-.1,31.65Z"/>
  <path class="cls-2" d="m1024.45,111.1c0,33.66-.1,67.32.12,100.98.03,4.49-1.21,5.48-5.49,5.37-11.47-.31-22.96-.21-34.43-.04-3.46.05-5.06-.38-5.06-4.59.15-68.29.13-136.58.02-204.87,0-2.54,2.07-4.57,4.61-4.53,11.86.22,23.73.27,35.58-.02,4.04-.1,4.73,1.34,4.72,4.97-.12,34.24-.07,68.48-.07,102.73Z"/>
  <path class="cls-1" d="m1093.7,97.09c4.04-6.14,7.26-12.47,12.65-17.36,9.55-8.65,20.79-10.66,33.11-8.92,3.12.44,4.29,1.98,4.12,5.48-.5,10.09-.97,20.18-.09,30.24.57,6.53-.83,6.19-4.6,4.85-21.89-7.75-39.49,1.94-43.93,24.14-.83,4.17-1.17,8.49-1.19,12.75-.12,21.2-.17,42.41.04,63.61.05,4.57-.92,5.98-6.71,5.49-10.45-.87-20.93-1.05-31.37-.1-5.48.5-6.85-.14-6.84-4.41.12-45.13.11-90.26.02-135.39,0-3.82.69-5.33,6.43-4.66,11.1,1.31,22.32.46,33.48-.11,3.87-.2,5.06.79,4.95,4.3-.21,6.69-.06,13.38-.06,20.08Z"/>
  <path class="cls-2" d="m375.77,109.75c-11.59-6.3-22.9-9.39-34.89-9.89-5.86-.25-11.59.34-16.93,2.95-8.1,3.96-9.41,10.88-2.71,16.91,4.47,4.03,10.07,5.79,15.58,7.6,8.29,2.73,16.51,5.55,24.32,9.51,14.23,7.22,22.95,17.89,23.28,34.66.36,18.18-7.32,31.46-23.14,39.93-16.98,9.09-35.46,10.2-54.19,8.99-6.93-.45-13.76-1.76-20.51-3.36-9.45-2.24-13.43-2-13.25-8.24.3-10.24.1-20.5.1-31.65,9.69,5.14,18.89,9.46,28.98,11.51,9.87,2,19.66,2.4,29.38-.59,4.87-1.5,9-4.04,9.65-9.67.66-5.78-3.21-8.8-7.61-11.27-4.59-2.58-9.57-4.22-14.6-5.71-8.01-2.39-15.57-5.81-23.2-9.2-29.64-13.17-29.41-56.13-3.81-71.82,12.16-7.45,25.45-10.33,39.33-11.07,13.52-.72,26.81,1.22,39.95,4.42,2.66.65,4.45,3.11,4.38,5.85-.28,9.69-.1,19.4-.1,30.15Z"/>
  <path class="cls-1" d="m1209.09,97.71c3.06-4.86,5.46-9.88,9.06-14.21,9.52-11.44,21.96-14.58,36.14-12.78,2.77.35,4.47,1.4,4.41,4.8-.2,11.08-.08,22.16-.07,33.24,0,2.42,0,4.28-3.5,2.92-23.37-9.07-45.15,1.66-45.94,34.43-.52,21.76-.27,43.55.02,65.32.05,3.45-2.74,6.13-6.19,6.01-11.41-.38-22.85-.23-34.27-.05-2.36.04-4.29-1.86-4.28-4.22.1-45.3.11-90.59,0-135.89,0-2.58,2.1-4.64,4.68-4.6,11.83.21,23.67.22,35.5-.01,3.69-.07,4.65,1.13,4.52,4.64-.25,6.79-.07,13.6-.07,20.4Z"/>
</svg>