<?xml version="1.0" encoding="UTF-8" standalone="no"?>
<svg
   xmlns:dc="http://purl.org/dc/elements/1.1/"
   xmlns:cc="http://creativecommons.org/ns#"
   xmlns:rdf="http://www.w3.org/1999/02/22-rdf-syntax-ns#"
   xmlns:svg="http://www.w3.org/2000/svg"
   xmlns="http://www.w3.org/2000/svg"
   xmlns:sodipodi="http://sodipodi.sourceforge.net/DTD/sodipodi-0.dtd"
   xmlns:inkscape="http://www.inkscape.org/namespaces/inkscape"
   version="1.1"
   id="svg44"
   xml:space="preserve"
   width="1597.24"
   height="286.76785"
   viewBox="0 0 1597.24 286.76785"
   sodipodi:docname="logo.svg"
   inkscape:version="1.0.2 (e86c870879, 2021-01-15, custom)"><metadata
     id="metadata50"><rdf:RDF><cc:Work
         rdf:about=""><dc:format>image/svg+xml</dc:format><dc:type
           rdf:resource="http://purl.org/dc/dcmitype/StillImage" /><dc:title></dc:title></cc:Work></rdf:RDF></metadata><defs
     id="defs48" /><sodipodi:namedview
     pagecolor="#ffffff"
     bordercolor="#666666"
     borderopacity="1"
     objecttolerance="10"
     gridtolerance="10"
     guidetolerance="10"
     inkscape:pageopacity="0"
     inkscape:pageshadow="2"
     inkscape:window-width="3840"
     inkscape:window-height="2131"
     id="namedview46"
     showgrid="false"
     inkscape:zoom="1.5565522"
     inkscape:cx="546.99025"
     inkscape:cy="101.68056"
     inkscape:window-x="0"
     inkscape:window-y="0"
     inkscape:window-maximized="0"
     inkscape:current-layer="g52"
     fit-margin-top="0"
     fit-margin-left="0"
     fit-margin-right="0"
     fit-margin-bottom="0"
     inkscape:document-rotation="0" /><g
     id="g52"
     inkscape:groupmode="layer"
     inkscape:label="ink_ext_XXXXXX"
     transform="matrix(1.3333333,0,0,-1.3333333,0,398.88399)"
     style="display:inline"><g
       id="g54"
       transform="scale(0.1)"><path
         d="m 3449.23,2003.93 c -117.96,38.36 -204.27,60.28 -345.24,60.28 -103.57,0 -227.29,-35.62 -227.29,-156.17 0,-224.69 670.35,-82.21 670.35,-591.84 0,-328.802 -307.84,-460.329 -621.43,-460.329 -146.73,0 -296.34,24.66 -437.31,60.289 l 23.02,301.39 c 120.83,-57.54 247.42,-93.15 379.76,-93.15 97.82,0 253.18,35.61 253.18,172.62 0,276.73 -670.34,87.68 -670.34,597.32 0,304.14 279.06,438.39 581.15,438.39 181.25,0 299.21,-27.39 420.05,-52.06 l -25.9,-276.74"
         style="fill:#ffffff;fill-opacity:1;fill-rule:nonzero;stroke:none"
         id="path56" /><path
         d="m 3449.23,2003.93 c -117.96,38.36 -204.27,60.28 -345.24,60.28 -103.57,0 -227.29,-35.62 -227.29,-156.17 0,-224.69 670.35,-82.21 670.35,-591.84 0,-328.802 -307.84,-460.329 -621.43,-460.329 -146.73,0 -296.34,24.66 -437.31,60.289 l 23.02,301.39 c 120.83,-57.54 247.42,-93.15 379.76,-93.15 97.82,0 253.18,35.61 253.18,172.62 0,276.73 -670.34,87.68 -670.34,597.32 0,304.14 279.06,438.39 581.15,438.39 181.25,0 299.21,-27.39 420.05,-52.06 z"
         style="fill:none;stroke:#211d1d;stroke-width:30;stroke-linecap:butt;stroke-linejoin:miter;stroke-miterlimit:10;stroke-dasharray:none;stroke-opacity:1;opacity:0"
         id="path58" /><path
         d="m 3809.86,2943.75 h 370.81 v -835.7 h 5.54 c 94.09,137 254.6,224.68 448.3,224.68 337.62,0 484.28,-235.64 484.28,-553.47 V 888.75 h -370.82 v 753.5 c 0,172.63 -2.76,405.52 -240.75,405.52 -268.43,0 -326.55,-287.69 -326.55,-468.54 V 888.75 h -370.81 v 2055"
         style="fill:#ffffff;fill-opacity:1;fill-rule:nonzero;stroke:none"
         id="path60" /><path
         d="m 3809.86,2943.75 h 370.81 v -835.7 h 5.54 c 94.09,137 254.6,224.68 448.3,224.68 337.62,0 484.28,-235.64 484.28,-553.47 V 888.75 h -370.82 v 753.5 c 0,172.63 -2.76,405.52 -240.75,405.52 -268.43,0 -326.55,-287.69 -326.55,-468.54 V 888.75 h -370.81 z"
         style="fill:none;stroke:#211d1d;stroke-width:30;stroke-linecap:butt;stroke-linejoin:miter;stroke-miterlimit:10;stroke-dasharray:none;stroke-opacity:1;opacity:0"
         id="path62" /><path
         d="m 6797.9,888.75 h -358.43 v 191.8 h -5.64 c -115.7,-136.991 -279.4,-224.679 -476.95,-224.679 -344.32,0 -493.9,235.649 -493.9,553.489 v 890.49 h 378.18 v -753.49 c 0,-172.62 2.82,-405.53 245.54,-405.53 273.75,0 333.03,287.71 333.03,468.54 v 690.48 H 6797.9 V 888.75"
         style="fill:#ffffff;fill-opacity:1;fill-rule:nonzero;stroke:none"
         id="path64" /><path
         d="m 6797.9,888.75 h -358.43 v 191.8 h -5.64 c -115.7,-136.991 -279.4,-224.679 -476.95,-224.679 -344.32,0 -493.9,235.649 -493.9,553.489 v 890.49 h 378.18 v -753.49 c 0,-172.62 2.82,-405.53 245.54,-405.53 273.75,0 333.03,287.71 333.03,468.54 v 690.48 h 378.17 z"
         style="fill:none;stroke:#211d1d;stroke-width:30;stroke-linecap:butt;stroke-linejoin:miter;stroke-miterlimit:10;stroke-dasharray:none;stroke-opacity:1;opacity:0"
         id="path66" /><path
         d="m 7309.06,2031.33 h -282.11 v 268.52 h 282.11 v 197.28 c 0,282.23 165.28,479.5 467.33,479.5 96.88,0 205.16,-13.7 279.25,-30.14 l -31.34,-304.14 c -34.2,19.18 -82.64,49.33 -165.28,49.33 -128.22,0 -168.11,-106.87 -168.11,-216.47 V 2299.85 H 8024.3 V 2031.33 H 7690.91 V 888.75 h -381.85 v 1142.58"
         style="fill:#ffffff;fill-opacity:1;fill-rule:nonzero;stroke:none"
         id="path68" /><path
         d="m 7309.06,2031.33 h -282.11 v 268.52 h 282.11 v 197.28 c 0,282.23 165.28,479.5 467.33,479.5 96.88,0 205.16,-13.7 279.25,-30.14 l -31.34,-304.14 c -34.2,19.18 -82.64,49.33 -165.28,49.33 -128.22,0 -168.11,-106.87 -168.11,-216.47 V 2299.85 H 8024.3 V 2031.33 H 7690.91 V 888.75 h -381.85 z"
         style="fill:none;stroke:#211d1d;stroke-width:30;stroke-linecap:butt;stroke-linejoin:miter;stroke-miterlimit:10;stroke-dasharray:none;stroke-opacity:1;opacity:0"
         id="path70" /><path
         d="m 8380.99,2031.33 h -282.11 v 268.52 h 282.11 v 197.28 c 0,282.23 165.27,479.5 467.32,479.5 96.89,0 205.17,-13.7 279.26,-30.14 l -31.35,-304.14 c -34.2,19.18 -82.64,49.33 -165.27,49.33 -128.24,0 -168.13,-106.87 -168.13,-216.47 v -175.36 h 333.4 v -268.52 h -333.4 V 888.75 h -381.83 v 1142.58"
         style="fill:#ffffff;fill-opacity:1;fill-rule:nonzero;stroke:none"
         id="path72" /><path
         d="m 8380.99,2031.33 h -282.11 v 268.52 h 282.11 v 197.28 c 0,282.23 165.27,479.5 467.32,479.5 96.89,0 205.17,-13.7 279.26,-30.14 l -31.35,-304.14 c -34.2,19.18 -82.64,49.33 -165.27,49.33 -128.24,0 -168.13,-106.87 -168.13,-216.47 v -175.36 h 333.4 v -268.52 h -333.4 V 888.75 h -381.83 z"
         style="fill:none;stroke:#211d1d;stroke-width:30;stroke-linecap:butt;stroke-linejoin:miter;stroke-miterlimit:10;stroke-dasharray:none;stroke-opacity:1;opacity:0"
         id="path74" /><path
         d="m 9331.86,2943.75 h 385.51 v -2055 h -385.51 v 2055"
         style="fill:#ffffff;fill-opacity:1;fill-rule:nonzero;stroke:none"
         id="path76" /><path
         d="m 9331.86,2943.75 h 385.51 v -2055 h -385.51 z"
         style="fill:none;stroke:#211d1d;stroke-width:30;stroke-linecap:butt;stroke-linejoin:miter;stroke-miterlimit:10;stroke-dasharray:none;stroke-opacity:1;opacity:0"
         id="path78" /><path
         d="m 10002.2,2299.85 h 342.4 v -320.58 h 5.7 c 17.3,131.53 175.5,353.46 405.7,353.46 37.4,0 77.6,0 117.9,-10.95 v -369.9 c -34.5,19.17 -103.5,30.13 -172.6,30.13 -313.6,0 -313.6,-372.64 -313.6,-575.39 V 888.75 h -385.5 v 1411.1"
         style="fill:#3d90d5;fill-opacity:1;fill-rule:nonzero;stroke:none"
         id="path80" /><path
         d="m 10002.2,2299.85 h 342.4 v -320.58 h 5.7 c 17.3,131.53 175.5,353.46 405.7,353.46 37.4,0 77.6,0 117.9,-10.95 v -369.9 c -34.5,19.17 -103.5,30.13 -172.6,30.13 -313.6,0 -313.6,-372.64 -313.6,-575.39 V 888.75 h -385.5 z"
         style="fill:none;stroke:#3d90d5;stroke-width:30;stroke-linecap:butt;stroke-linejoin:miter;stroke-miterlimit:10;stroke-dasharray:none;stroke-opacity:1"
         id="path82" /><path
         d="m 11092.5,2299.85 h 342.4 v -320.58 h 5.8 c 17.2,131.53 175.5,353.46 405.6,353.46 37.4,0 77.7,0 118,-10.95 v -369.9 c -34.6,19.17 -103.6,30.13 -172.6,30.13 -313.6,0 -313.6,-372.64 -313.6,-575.39 V 888.75 h -385.6 v 1411.1"
         style="fill:#3d90d5;fill-opacity:1;fill-rule:nonzero;stroke:none"
         id="path84" /><path
         d="m 11092.5,2299.85 h 342.4 v -320.58 h 5.8 c 17.2,131.53 175.5,353.46 405.6,353.46 37.4,0 77.7,0 118,-10.95 v -369.9 c -34.6,19.17 -103.6,30.13 -172.6,30.13 -313.6,0 -313.6,-372.64 -313.6,-575.39 V 888.75 h -385.6 z"
         style="fill:none;stroke:#3d90d5;stroke-width:30;stroke-linecap:butt;stroke-linejoin:miter;stroke-miterlimit:10;stroke-dasharray:none;stroke-opacity:1"
         id="path86" /><path
         d="m 16.668,2422.09 720,-630.01 c 0,0 443.332,-46.66 833.332,143.34 390,190 480,560 480,560 l -703.33,433.33 c 0,0 -116.67,-376.66 -496.67,-496.66 -403.332,-130 -833.332,-10 -833.332,-10"
         style="fill:#3d90d5;fill-opacity:1;fill-rule:nonzero;stroke:none"
         id="path132" /><path
         d="m 26.668,1992.09 740,-620.01 c 0,0 506.662,46.67 963.332,196.67 456.67,150 580,343.33 580,343.33 l -356.67,223.34 c 0,0 -63.33,-163.34 -513.33,-346.67 -480,-143.33 -746.668,-70 -746.668,-70 l -350,310 -316.664,-36.66"
         style="fill:#3d90d5;fill-opacity:1;fill-rule:nonzero;stroke:none"
         id="path134" /><path
         d="m 353.332,1622.08 393.336,-336.66 c 0,0 385.892,43.12 610.002,96.66 376.66,90 693.33,210 693.33,210 l 220,-140 L 796.668,872.078 0,1492.08 l 353.332,130"
         style="fill:#3d90d5;fill-opacity:1;fill-rule:nonzero;stroke:none"
         id="path136" /></g></g><g
     inkscape:groupmode="layer"
     id="layer1"
     inkscape:label="PM"
     style="display:inline"
     transform="translate(0,0.00399003)" /></svg>
